HIERARCHY
ROOT hip
{
	OFFSET 0.000000 0.000000 0.000000 
	CHANNELS 6 Xposition Yposition Zposition Xrotation Zrotation Yrotation
	JOINT abdomen
	{
		OFFSET 0.000000 3.402643 0.000000 
		CHANNELS 3 Xrotation Zrotation Yrotation
		JOINT chest
		{
			OFFSET 0.000000 8.438565 -0.680529 
			CHANNELS 3 Xrotation Zrotation Yrotation
			JOINT neck
			{
				OFFSET 0.000000 10.207942 -0.272212 
				CHANNELS 3 Xrotation Zrotation Yrotation
				JOINT head
				{
					OFFSET 0.000000 3.130431 0.000000 
					CHANNELS 3 Xrotation Zrotation Yrotation
					End Site
					{
						OFFSET 0.000000 3.130435 0.000000 
					}
				}
			}
			JOINT lCollar
			{
				OFFSET 3.470700 6.669187 -0.816635 
				CHANNELS 3 Yrotation Zrotation Xrotation
				JOINT lShldr
				{
					OFFSET 3.198488 0.000000 0.000000 
					CHANNELS 3 Zrotation Yrotation Xrotation
					JOINT lForeArm
					{
						OFFSET 10.139888 0.000000 0.000000 
						CHANNELS 3 Yrotation Zrotation Xrotation
						JOINT lHand
						{
							OFFSET 8.370511 0.000000 0.000000 
							CHANNELS 3 Zrotation Yrotation Xrotation
							End Site
							{
								OFFSET 4.083176 0.000000 0.000000 
							}
						}
					}
				}
			}
			JOINT rCollar
			{
				OFFSET -3.470700 6.669187 -0.816635 
				CHANNELS 3 Yrotation Zrotation Xrotation
				JOINT rShldr
				{
					OFFSET -3.198488 0.000000 0.000000 
					CHANNELS 3 Zrotation Yrotation Xrotation
					JOINT rForeArm
					{
						OFFSET -10.139888 0.000000 0.000000 
						CHANNELS 3 Yrotation Zrotation Xrotation
						JOINT rHand
						{
							OFFSET -8.370511 0.000000 0.000000 
							CHANNELS 3 Zrotation Yrotation Xrotation
							End Site
							{
								OFFSET -4.083176 0.000000 0.000000 
							}
						}
					}
				}
			}
		}
	}
	JOINT lThigh
	{
		OFFSET 5.308129 -1.633274 1.361059 
		CHANNELS 3 Xrotation Zrotation Yrotation
		JOINT lShin
		{
			OFFSET -2.041588 -20.007561 0.000000 
			CHANNELS 3 Xrotation Zrotation Yrotation
			JOINT lFoot
			{
				OFFSET 0.000000 -19.190928 -1.224953 
				CHANNELS 3 Xrotation Yrotation Zrotation
				End Site
				{
					OFFSET 0.000000 -2.449906 4.627600 
				}
			}
		}
	}
	JOINT rThigh
	{
		OFFSET -5.308129 -1.633274 1.361059 
		CHANNELS 3 Xrotation Zrotation Yrotation
		JOINT rShin
		{
			OFFSET 2.041588 -20.007561 0.000000 
			CHANNELS 3 Xrotation Zrotation Yrotation
			JOINT rFoot
			{
				OFFSET 0.000000 -19.190928 -1.224953 
				CHANNELS 3 Xrotation Yrotation Zrotation
				End Site
				{
					OFFSET 0.000000 -2.449906 4.627600 
				}
			}
		}
	}
}
MOTION
Frames: 11
Frame Time: 0.016667
-1.000103 55.970390 82.624954 10.227299 10.197331 18.208857 41.330002 1.262318 -3.192078 8.329700 1.122870 -1.172063 3.734003 3.850954 0.060325 -0.019300 -8.364388 1.943133 -16.715595 -4.205901 -0.214874 -68.032486 34.341862 -45.000000 -35.457115 -5.000000 35.452282 -20.111723 0.793898 -7.321895 17.913019 8.584750 -0.445587 56.559055 -11.761591 -26.248980 38.900787 5.000000 19.407604 8.356295 -25.942844 -0.412569 -15.317570 7.526330 7.300130 31.332266 -5.445535 -3.625375 24.715614 -12.767150 -17.070059 -6.991469 -14.087243 -14.385767 3.989889 5.755285 0.638161 5.921075 -11.911423 8.887032 
-1.064620 55.959457 82.664246 10.518422 9.891057 18.360094 41.457485 1.486972 -3.082529 8.436457 1.171694 -1.162298 3.685212 3.889577 0.054486 -0.240044 -8.335204 1.923813 -16.704929 -3.962088 -0.202303 -68.264000 34.645584 -45.000000 -35.052101 -5.000000 35.642509 -19.998446 0.438550 -8.369698 17.872135 8.350694 -0.433463 57.022419 -11.902524 -26.647991 38.461689 5.000000 19.464939 8.217471 -26.161356 -0.164750 -15.814639 7.710933 8.419045 31.122433 -5.215253 -3.459054 22.448626 -12.366610 -17.333759 -6.913892 -13.689316 -14.357152 3.221485 5.651742 0.539868 6.098603 -12.060929 9.088959 
-1.109240 55.952007 82.692360 10.831649 9.621175 18.364378 41.568092 1.668768 -2.896591 8.543506 1.181455 -1.152531 3.576452 3.848040 0.041056 -0.492189 -8.325492 1.914151 -16.655689 -3.845057 -0.196268 -68.405312 34.775513 -45.000000 -34.673603 -5.000000 35.851654 -19.808693 0.173494 -8.979313 17.782333 8.097133 -0.418944 57.432171 -12.003624 -26.993757 38.202999 5.000000 19.444878 7.993794 -26.240007 0.055374 -16.262241 7.758381 9.526321 30.227316 -4.942166 -3.156761 21.090700 -12.097619 -17.126575 -6.932017 -13.342968 -14.391439 2.450884 5.506521 0.452613 6.366983 -11.960896 9.325067 
-1.136966 55.944725 82.709846 11.156430 9.343637 18.338636 41.669678 1.855884 -2.718547 8.650525 1.181448 -1.152526 3.448175 3.787191 0.030543 -0.755531 -8.315732 1.914152 -16.606524 -3.747531 -0.191237 -68.533623 34.879597 -45.000000 -34.289719 -5.000000 36.065784 -19.601559 -0.083599 -9.498253 17.682756 7.833819 -0.405331 57.845589 -12.077963 -27.331341 37.970901 5.000000 19.419933 7.777820 -26.292961 0.239855 -16.710957 7.787344 10.604699 29.203262 -4.673787 -2.839191 19.913591 -11.926600 -16.813007 -6.980423 -12.989606 -14.414693 1.688352 5.347760 0.358439 6.659898 -11.862836 9.521291 
-1.147195 55.934540 82.714272 11.452052 9.117496 18.217073 41.812931 2.000214 -2.558008 8.729375 1.152159 -1.123232 3.358998 3.745653 0.016471 -1.000982 -8.305585 1.992868 -16.587368 -3.676476 -0.197056 -68.728447 35.017273 -45.000000 -33.956726 -5.000000 36.264309 -19.334301 -0.350597 -9.908178 17.632341 7.609514 -0.393728 58.213749 -12.168100 -27.628855 37.866226 5.000000 19.405632 7.595505 -26.268456 0.361156 -17.112724 7.759006 11.667623 27.818573 -4.429519 -2.542259 19.466679 -11.686069 -16.545301 -7.040267 -12.701777 -14.468398 1.004975 5.219924 0.301824 7.070333 -11.637886 9.838321 
-1.141376 55.922897 82.706635 11.711722 8.924284 17.989838 41.977757 2.101482 -2.435931 8.770217 1.083821 -1.083991 3.309535 3.724884 0.009757 -1.238943 -8.275440 2.159966 -16.606796 -3.647215 -0.195546 -68.972366 35.187603 -45.000000 -33.636532 -5.000000 36.475571 -18.989702 -0.612013 -10.204180 17.621170 7.404715 -0.383129 58.523144 -12.261419 -27.869083 37.857525 5.000000 19.415071 7.483222 -26.173042 0.369612 -17.453840 7.631256 12.718596 26.036053 -4.189807 -2.280874 19.704517 -11.257486 -16.294064 -7.136678 -12.493176 -14.510686 0.458600 5.139774 0.247551 7.582981 -11.288182 10.327840 
-1.123616 55.900642 82.692978 11.977505 8.739257 17.772423 42.133114 2.197869 -2.307778 8.820587 1.025245 -1.044942 3.250313 3.704115 0.003042 -1.476729 -8.245231 2.328469 -16.625603 -3.610995 -0.184195 -69.224350 35.349056 -45.000000 -33.326351 -5.000000 36.681625 -18.650732 -0.877596 -10.491148 17.610037 7.199914 -0.372525 58.837742 -12.351555 -28.100012 37.860939 5.000000 19.414495 7.375700 -26.076443 0.368966 -17.791908 7.538349 13.728732 24.277973 -3.998466 -1.990431 19.831196 -10.875074 -16.077831 -7.245047 -12.300526 -14.524111 -0.078048 5.062957 0.215150 8.098458 -10.961893 10.796841 
-1.094540 55.855835 82.675453 12.266724 8.658284 17.314100 42.184826 2.102191 -2.303616 8.842083 0.947142 -0.966831 3.407838 3.803588 0.007706 -1.578779 -8.204265 2.643340 -16.801743 -3.539905 -0.190004 -69.692764 35.652302 -45.000000 -32.938427 -5.000000 37.057438 -18.502171 -1.075791 -10.851507 17.678789 7.079920 -0.375696 59.031807 -12.429456 -28.245424 37.970604 5.000000 19.565966 7.318484 -25.924299 0.301296 -18.084726 7.479518 13.986016 22.260620 -4.248664 -1.931107 20.778961 -10.515036 -15.250031 -7.509365 -12.244725 -14.472895 -0.340428 5.101461 0.192679 7.839843 -10.552518 10.504903 
-1.055278 55.801506 82.654373 12.560291 8.585612 16.855780 42.217686 1.983671 -2.300127 8.853711 0.859269 -0.908249 3.566061 3.894862 0.024124 -1.681785 -8.163000 2.969269 -16.977262 -3.461856 -0.185970 -70.175804 35.942715 -45.000000 -32.567619 -5.000000 37.423500 -18.342642 -1.264097 -11.194561 17.746313 6.953128 -0.369126 59.216347 -12.519662 -28.384537 38.070076 5.000000 19.722273 7.249945 -25.781998 0.235928 -18.357922 7.440570 14.231930 20.237669 -4.534810 -1.869406 21.659857 -10.168509 -14.510587 -7.753694 -12.186642 -14.412818 -0.624357 5.133582 0.149057 7.526973 -10.122833 10.228837 
-1.008231 55.751965 82.632713 12.783607 8.505556 16.328474 42.317825 1.906106 -2.325070 8.884180 0.820220 -0.849661 3.674161 3.934942 0.027919 -1.800563 -8.160256 3.324193 -17.084118 -3.464707 -0.176647 -70.536499 36.124954 -45.000000 -32.111782 -5.000000 37.864990 -18.390699 -1.600914 -11.231098 17.783995 6.917094 -0.357872 59.283386 -12.496994 -28.415348 38.233978 5.000000 19.800108 7.264805 -25.584959 0.233219 -18.596025 7.435695 14.337735 18.278620 -4.785784 -1.778641 22.747881 -9.768931 -13.955378 -7.976280 -12.054254 -14.166806 -0.916730 5.159626 0.133887 7.494311 -9.917261 9.931890 
-0.952736 55.707676 82.610321 12.924797 8.408275 15.730741 42.476620 1.829446 -2.408394 8.924355 0.800703 -0.791074 3.752272 3.905975 0.032298 -1.937247 -8.195825 3.719163 -17.133226 -3.552480 -0.181176 -70.778389 36.191223 -45.000000 -31.564709 -5.000000 38.398685 -18.662338 -2.072192 -10.940701 17.794069 6.965857 -0.360399 59.212708 -12.366231 -28.325230 38.472439 5.000000 19.799717 7.343600 -25.345346 0.314587 -18.777374 7.498713 14.264401 16.355862 -5.020580 -1.651934 23.941755 -9.462700 -13.778413 -8.153532 -11.872835 -13.747816 -1.248600 5.170165 0.096263 7.690847 -9.844609 9.656981 
